<svg width="40" height="40" viewBox="0 0 40 40" fill="none" xmlns="http://www.w3.org/2000/svg">
<g id="material-symbols:arrow-circle-right">
<path id="Vector" d="M20 13.3334L13.3334 20L20 26.6667L22.3334 24.3334L19.6667 21.6667L26.6667 21.6667L26.6667 18.3334L19.6667 18.3334L22.3334 15.6667L20 13.3334ZM20 3.33335C22.3056 3.33335 24.4722 3.77113 26.5 4.64669C28.5278 5.52224 30.2917 6.70946 31.7917 8.20835C33.2917 9.70835 34.4789 11.4722 35.3534 13.5C36.2278 15.5278 36.6656 17.6945 36.6667 20C36.6667 22.3056 36.2289 24.4722 35.3534 26.5C34.4778 28.5278 33.2906 30.2917 31.7917 31.7917C30.2917 33.2917 28.5278 34.4789 26.5 35.3534C24.4722 36.2278 22.3056 36.6656 20 36.6667C17.6945 36.6667 15.5278 36.2289 13.5 35.3534C11.4722 34.4778 9.70835 33.2906 8.20835 31.7917C6.70835 30.2917 5.52058 28.5278 4.64502 26.5C3.76947 24.4722 3.33225 22.3056 3.33336 20C3.33336 17.6945 3.77114 15.5278 4.64669 13.5C5.52225 11.4722 6.70947 9.70835 8.20836 8.20835C9.70836 6.70835 11.4722 5.52058 13.5 4.64502C15.5278 3.76946 17.6945 3.33224 20 3.33335Z" fill="url(#paint0_linear_159_20)"/>
</g>
<defs>
<linearGradient id="paint0_linear_159_20" x1="36.6667" y1="36.6667" x2="3.33335" y2="3.33335" gradientUnits="userSpaceOnUse">
<stop stop-color="#F81F01"/>
<stop offset="1" stop-color="#EE076E"/>
</linearGradient>
</defs>
</svg>
