<svg width="40" height="40" viewBox="0 0 40 40" fill="none" xmlns="http://www.w3.org/2000/svg">
<g id="material-symbols:arrow-circle-right">
<path id="Vector" d="M20 26.6666L26.6667 20L20 13.3333L17.6667 15.6666L20.3333 18.3333H13.3333V21.6666H20.3333L17.6667 24.3333L20 26.6666ZM20 36.6666C17.6945 36.6666 15.5278 36.2289 13.5 35.3533C11.4722 34.4778 9.70834 33.2905 8.20834 31.7916C6.70834 30.2916 5.52112 28.5278 4.64668 26.5C3.77223 24.4722 3.33445 22.3055 3.33334 20C3.33334 17.6944 3.77112 15.5278 4.64668 13.5C5.52223 11.4722 6.70945 9.70831 8.20834 8.20831C9.70834 6.70831 11.4722 5.52109 13.5 4.64665C15.5278 3.7722 17.6945 3.33442 20 3.33331C22.3056 3.33331 24.4722 3.77109 26.5 4.64665C28.5278 5.5222 30.2917 6.70942 31.7917 8.20831C33.2917 9.70831 34.4795 11.4722 35.355 13.5C36.2306 15.5278 36.6678 17.6944 36.6667 20C36.6667 22.3055 36.2289 24.4722 35.3533 26.5C34.4778 28.5278 33.2906 30.2916 31.7917 31.7916C30.2917 33.2916 28.5278 34.4794 26.5 35.355C24.4722 36.2305 22.3056 36.6678 20 36.6666Z" fill="url(#paint0_linear_159_18)"/>
</g>
<defs>
<linearGradient id="paint0_linear_159_18" x1="3.33334" y1="3.33331" x2="36.6667" y2="36.6666" gradientUnits="userSpaceOnUse">
<stop stop-color="#F81F01"/>
<stop offset="1" stop-color="#EE076E"/>
</linearGradient>
</defs>
</svg>
